PathFileType	4	(X/Y/Z)	T1_P2_NoVision_NoMovement_0_0-723.trc
DataRate	CameraRate	NumFrames	NumMarkers	Units	OrigDataRate	OrigDataStartFrame	OrigNumFrames
60	60	4	27	m	60	180	723
Frame#	Time	RHip			RKnee			RAnkle			RBigToe			RSmallToe			RHeel			LHip			LKnee			LAnkle			LBigToe			LSmallToe			LHeel			Neck			Head			Nose			RShoulder			RElbow			RWrist			RThumb			RIndex			RPinky			LShoulder			LElbow			LWrist			LThumb			LIndex			LPinky		
		X1	Y1	Z1	X2	Y2	Z2	X3	Y3	Z3	X4	Y4	Z4	X5	Y5	Z5	X6	Y6	Z6	X7	Y7	Z7	X8	Y8	Z8	X9	Y9	Z9	X10	Y10	Z10	X11	Y11	Z11	X12	Y12	Z12	X13	Y13	Z13	X14	Y14	Z14	X15	Y15	Z15	X16	Y16	Z16	X17	Y17	Z17	X18	Y18	Z18	X19	Y19	Z19	X20	Y20	Z20	X21	Y21	Z21	X22	Y22	Z22	X23	Y23	Z23	X24	Y24	Z24	X25	Y25	Z25	X26	Y26	Z26	X27	Y27	Z27
181	3.0166666666666666	462.4028913615309	3642.175390174405	556.6963344052954	866.4964037950267	3693.495132676838	552.4118684679476	1258.1986715530627	3773.60870811166	624.8516117954048	1318.2579270941746	3610.407875861825	555.9229113360816	1317.9609562698615	3679.206478548493	522.5458711477609	1288.9297052764557	3751.6622502774335	631.5503933080353	453.81372622781964	3506.4935836470127	734.6903127600513	877.6023150370847	3549.7650275455917	749.8720463298222	1237.1243344430768	3605.7681323936304	729.5679116440613	1315.545784326226	3518.600257087478	678.1356230500107	1277.9568404705635	3456.3046810401306	716.3314410368304	1266.3867787158995	3622.711787291282	720.3442566639538	-122.15801652504042	3514.035082478578	634.7209853408349	-382.2845028267	3489.223647344592	626.7313273222815	-233.77578846691813	3418.9460099973835	573.8787242400771	-45.3518184144193	3634.2148848857046	530.2789876331427	197.55102026739925	3707.747855800138	459.32755219290095	443.8372014773889	3652.204220249828	416.9379158514679	558.5514621069997	3563.0487411759254	424.35159594570905	579.6006416587209	3559.3086179570914	394.66088423256315	569.4165205629453	3634.7722278292044	394.6285589909611	-27.766993282049533	3530.0071842067446	832.401212556302	223.17564937927366	3448.2157904353708	849.0634243555112	473.0295309860536	3412.6162418430927	823.9096233292922	584.7326969158092	3430.6101588504057	810.6507250969378	599.1462031518579	3415.3635265839134	820.8272158145302	590.3380776339313	3374.1524078148427	846.498618582051
182	3.033333333333333	462.30855053531366	3642.320205800838	556.6870920621182	862.2508096147602	3698.239789600182	554.7160200384963	1258.4158209649265	3775.696116191755	624.0581819683213	1318.114685384714	3610.405499196601	556.0399036037442	1317.3457114990304	3678.211257268009	522.282031417645	1288.9816883506926	3751.795890016621	631.4887239654137	453.78309819858055	3506.6690411734444	734.7250948386067	872.1937709505883	3547.838044830048	748.3928227468296	1237.212324336908	3605.839744487106	729.5900437360987	1315.6219120928286	3518.544255402886	678.0407021158464	1277.9303703881894	3456.189007814522	716.137565760402	1266.5886346374152	3622.5744877921197	720.0330332578746	-122.0233606330852	3514.102579549095	634.7077778373534	-382.22573786701247	3489.062090646628	626.6661343903498	-229.96368150474964	3420.3508021071607	574.3575133079146	-40.948074251958325	3630.281241481335	528.2950117605164	193.26776665431422	3712.2783352609385	461.3821482567135	443.7159961349779	3654.588949142614	412.79483527771896	558.3973706912967	3562.92291317681	424.34415361652776	576.1358413860992	3541.712921068112	390.8116392013614	569.2455101643993	3635.1163188935184	394.7092320409024	-32.451714114809384	3528.7120285696246	831.8196650816544	223.23661536540195	3448.2621925395147	849.0536765515121	473.08425577965954	3412.58110394855	823.8684285226608	584.6059493698609	3431.021943546973	810.6995963314408	599.0671226640168	3415.8157622600793	820.8757759392882	594.1331624393897	3387.48024240241	859.8808403004415
183	3.05	457.4665828891723	3641.2744309289715	556.1214864591926	857.1271857684766	3696.562608926694	553.5975044211501	1258.193325666542	3774.127614161979	625.039657612168	1318.2461977542969	3610.605728169372	555.9957233476242	1317.846986644688	3679.203931962426	522.6120016600065	1286.5008769824042	3758.0875045993316	634.9624992952758	453.75374490964384	3507.114342959934	735.0913865310558	871.9440731401761	3547.532409171997	748.4596580575553	1234.8194961308855	3608.480105581581	736.8404493439397	1315.769805622747	3519.2059669002465	678.4111131859195	1277.9544192744029	3456.5796993456097	716.5595805721879	1266.2294166388244	3623.2156048900124	720.9526603341768	-122.10052667940842	3514.0685476489725	634.7218921598419	-382.10646666469466	3488.739448910802	626.5203036523484	-229.98317649321305	3420.4721144586642	574.4049893870106	-40.97011317660694	3630.140204084152	528.195274611549	195.22496900802787	3691.766869249817	441.4355548938109	443.69737948509146	3652.4604253239977	416.8765848780016	558.5337614983794	3562.878245503868	424.44297533172477	576.1568701766769	3543.451486475475	390.7764036819194	570.4661704007796	3619.2383771445934	391.6430789363747	-32.4668161813242	3528.8195011171892	831.8757050481904	227.62399484763864	3450.0021594195778	850.1832359115026	472.9447596934833	3412.8379656706747	823.9529313951027	581.6095957687347	3434.5721895812103	812.7359503708491	599.0791356172932	3415.723709231766	820.7835708779005	594.107757675344	3389.8755308221957	855.6147318006059
184	3.066666666666667	457.5032807979506	3641.450141884252	556.2126263221691	851.3648492268388	3674.790645168277	547.7392947593784	1250.4437026046426	3751.360562292762	619.0657052400414	1318.1672954025719	3610.445343638009	555.930469979473	1317.4047044688696	3678.5197639377334	522.1298092543908	1281.2451035848133	3729.438963613515	626.0167969055605	453.7859977297091	3507.0907460000794	735.141244587009	860.763265669629	3541.334268476597	745.6181096131941	1230.5743718690971	3599.16840888937	732.9796744302723	1315.6854185894626	3518.7114282696184	678.2171528244428	1277.856321528259	3456.304297713923	716.4773705317847	1266.2919349631788	3620.5992015235092	724.9411963079141	-122.0752757565149	3513.9942988068065	634.5782205728748	-377.1356874445066	3484.862059545429	624.4943887643985	-233.68932668380697	3418.9330903322443	573.8604492227859	-40.860428221116585	3630.19003420071	528.2107987079023	195.3105885719517	3690.3161313493465	445.89910736584557	443.6808256957809	3652.3339451818347	416.8559142356179	558.4430964000518	3562.65726395972	424.2948292565873	580.936356157367	3545.2726804680724	391.8211527415085	570.3338816237739	3619.779028524011	391.7380507397946	-32.436049287219326	3528.492410036749	831.5529930023635	233.03655989914935	3453.7617126605837	851.9290072621321	473.0045413099432	3412.843256698365	823.9916051370461	581.6244851890915	3434.561469601053	812.8506719488173	599.164375472463	3415.747777184696	820.9432698894377	594.2899297237852	3389.8887289723875	855.4740343355402
